<?xml version="1.0" encoding="UTF-8"?>
<svg xmlns="http://www.w3.org/2000/svg" xmlns:xlink="http://www.w3.org/1999/xlink" width="13pt" height="13pt" viewBox="0 0 13 13" version="1.1">
<g id="surface1">
<path style=" stroke:none;fill-rule:nonzero;fill:#ffffff;fill-opacity:1;" d="M 10.914062 1.425781 L 10.519531 1.425781 L 10.519531 0.992188 C 10.519531 0.445312 10.085938 0 9.554688 0 C 9.019531 0 8.589844 0.445312 8.589844 0.992188 L 8.589844 1.425781 L 7.601562 1.425781 L 7.601562 0.992188 C 7.601562 0.445312 7.167969 0 6.636719 0 C 6.105469 0 5.671875 0.445312 5.671875 0.992188 L 5.671875 1.425781 L 4.683594 1.425781 L 4.683594 0.992188 C 4.683594 0.445312 4.25 0 3.71875 0 C 3.1875 0 2.753906 0.445312 2.753906 0.992188 L 2.753906 1.425781 L 2.246094 1.425781 C 1.402344 1.425781 0.710938 2.113281 0.710938 2.960938 L 0.710938 11.625 C 0.710938 12.472656 1.402344 13.160156 2.246094 13.160156 L 10.914062 13.160156 C 11.761719 13.160156 12.449219 12.472656 12.449219 11.625 L 12.449219 2.960938 C 12.449219 2.113281 11.761719 1.425781 10.914062 1.425781 Z M 9.132812 0.992188 C 9.132812 0.746094 9.320312 0.542969 9.554688 0.542969 C 9.785156 0.542969 9.976562 0.746094 9.976562 0.992188 L 9.976562 2.761719 C 9.976562 3.011719 9.785156 3.210938 9.554688 3.210938 C 9.320312 3.210938 9.132812 3.011719 9.132812 2.761719 Z M 6.214844 0.992188 C 6.214844 0.746094 6.402344 0.542969 6.636719 0.542969 C 6.867188 0.542969 7.058594 0.746094 7.058594 0.992188 L 7.058594 2.761719 C 7.058594 3.011719 6.867188 3.210938 6.636719 3.210938 C 6.402344 3.210938 6.214844 3.011719 6.214844 2.761719 Z M 3.296875 0.992188 C 3.296875 0.746094 3.484375 0.542969 3.71875 0.542969 C 3.949219 0.542969 4.140625 0.746094 4.140625 0.992188 L 4.140625 2.761719 C 4.140625 3.011719 3.949219 3.210938 3.71875 3.210938 C 3.484375 3.210938 3.296875 3.011719 3.296875 2.761719 Z M 11.546875 11.628906 C 11.546875 11.976562 11.261719 12.257812 10.914062 12.257812 L 2.246094 12.257812 C 1.898438 12.257812 1.617188 11.976562 1.617188 11.628906 L 1.617188 3.683594 L 11.546875 3.683594 Z M 11.546875 11.628906 "/>
<path style=" stroke:none;fill-rule:nonzero;fill:#ffffff;fill-opacity:1;" d="M 2.429688 5.28125 L 4.085938 5.28125 L 4.085938 6.757812 L 2.429688 6.757812 Z M 2.429688 5.28125 "/>
<path style=" stroke:none;fill-rule:nonzero;fill:#ffffff;fill-opacity:1;" d="M 4.644531 5.28125 L 6.300781 5.28125 L 6.300781 6.757812 L 4.644531 6.757812 Z M 4.644531 5.28125 "/>
<path style=" stroke:none;fill-rule:nonzero;fill:#ffffff;fill-opacity:1;" d="M 6.859375 5.28125 L 8.519531 5.28125 L 8.519531 6.757812 L 6.859375 6.757812 Z M 6.859375 5.28125 "/>
<path style=" stroke:none;fill-rule:nonzero;fill:#ffffff;fill-opacity:1;" d="M 9.074219 5.28125 L 10.734375 5.28125 L 10.734375 6.757812 L 9.074219 6.757812 Z M 9.074219 5.28125 "/>
<path style=" stroke:none;fill-rule:nonzero;fill:#ffffff;fill-opacity:1;" d="M 2.429688 7.253906 L 4.085938 7.253906 L 4.085938 8.726562 L 2.429688 8.726562 Z M 2.429688 7.253906 "/>
<path style=" stroke:none;fill-rule:nonzero;fill:#ffffff;fill-opacity:1;" d="M 4.644531 7.253906 L 6.300781 7.253906 L 6.300781 8.726562 L 4.644531 8.726562 Z M 4.644531 7.253906 "/>
<path style=" stroke:none;fill-rule:nonzero;fill:#ffffff;fill-opacity:1;" d="M 6.859375 7.253906 L 8.519531 7.253906 L 8.519531 8.726562 L 6.859375 8.726562 Z M 6.859375 7.253906 "/>
<path style=" stroke:none;fill-rule:nonzero;fill:#ffffff;fill-opacity:1;" d="M 9.074219 7.253906 L 10.734375 7.253906 L 10.734375 8.726562 L 9.074219 8.726562 Z M 9.074219 7.253906 "/>
<path style=" stroke:none;fill-rule:nonzero;fill:#ffffff;fill-opacity:1;" d="M 2.429688 9.222656 L 4.085938 9.222656 L 4.085938 10.699219 L 2.429688 10.699219 Z M 2.429688 9.222656 "/>
<path style=" stroke:none;fill-rule:nonzero;fill:#ffffff;fill-opacity:1;" d="M 4.644531 9.222656 L 6.300781 9.222656 L 6.300781 10.699219 L 4.644531 10.699219 Z M 4.644531 9.222656 "/>
<path style=" stroke:none;fill-rule:nonzero;fill:#ffffff;fill-opacity:1;" d="M 6.859375 9.222656 L 8.519531 9.222656 L 8.519531 10.699219 L 6.859375 10.699219 Z M 6.859375 9.222656 "/>
<path style=" stroke:none;fill-rule:nonzero;fill:#ffffff;fill-opacity:1;" d="M 9.074219 9.222656 L 10.734375 9.222656 L 10.734375 10.699219 L 9.074219 10.699219 Z M 9.074219 9.222656 "/>
</g>
</svg>