<?xml version="1.0" encoding="UTF-8"?>
<svg xmlns="http://www.w3.org/2000/svg" xmlns:xlink="http://www.w3.org/1999/xlink" width="13pt" height="13pt" viewBox="0 0 13 13" version="1.1">
<g id="surface1">
<path style=" stroke:none;fill-rule:nonzero;fill:#ffffff;fill-opacity:1;" d="M 6.40625 6.261719 C 7.269531 6.261719 8.011719 5.953125 8.621094 5.34375 C 9.230469 4.734375 9.539062 3.992188 9.539062 3.132812 C 9.539062 2.269531 9.230469 1.527344 8.621094 0.917969 C 8.011719 0.308594 7.265625 0 6.40625 0 C 5.546875 0 4.800781 0.308594 4.195312 0.917969 C 3.585938 1.527344 3.277344 2.269531 3.277344 3.132812 C 3.277344 3.992188 3.585938 4.734375 4.195312 5.34375 C 4.800781 5.953125 5.546875 6.261719 6.40625 6.261719 Z M 4.730469 1.457031 C 5.199219 0.988281 5.746094 0.761719 6.40625 0.761719 C 7.066406 0.761719 7.617188 0.988281 8.082031 1.457031 C 8.550781 1.921875 8.777344 2.472656 8.777344 3.132812 C 8.777344 3.792969 8.550781 4.339844 8.082031 4.804688 C 7.617188 5.273438 7.066406 5.5 6.40625 5.5 C 5.746094 5.5 5.199219 5.273438 4.730469 4.804688 C 4.265625 4.339844 4.039062 3.792969 4.039062 3.132812 C 4.039062 2.472656 4.265625 1.921875 4.730469 1.457031 Z M 4.730469 1.457031 "/>
<path style=" stroke:none;fill-rule:nonzero;fill:#ffffff;fill-opacity:1;" d="M 11.886719 9.996094 C 11.867188 9.742188 11.832031 9.464844 11.78125 9.175781 C 11.726562 8.882812 11.660156 8.601562 11.578125 8.347656 C 11.496094 8.085938 11.378906 7.828125 11.238281 7.578125 C 11.09375 7.320312 10.921875 7.097656 10.726562 6.910156 C 10.523438 6.71875 10.277344 6.5625 9.992188 6.449219 C 9.707031 6.335938 9.390625 6.28125 9.054688 6.28125 C 8.921875 6.28125 8.792969 6.335938 8.542969 6.496094 C 8.390625 6.59375 8.214844 6.710938 8.015625 6.835938 C 7.84375 6.945312 7.613281 7.046875 7.328125 7.140625 C 7.050781 7.230469 6.769531 7.273438 6.488281 7.273438 C 6.210938 7.273438 5.929688 7.230469 5.648438 7.140625 C 5.367188 7.046875 5.132812 6.945312 4.964844 6.835938 C 4.765625 6.710938 4.589844 6.597656 4.433594 6.496094 C 4.1875 6.332031 4.058594 6.28125 3.925781 6.28125 C 3.585938 6.28125 3.269531 6.335938 2.988281 6.449219 C 2.699219 6.5625 2.453125 6.71875 2.25 6.910156 C 2.058594 7.097656 1.886719 7.320312 1.738281 7.578125 C 1.597656 7.828125 1.484375 8.085938 1.398438 8.347656 C 1.320312 8.601562 1.25 8.882812 1.199219 9.175781 C 1.144531 9.464844 1.109375 9.742188 1.09375 9.996094 C 1.074219 10.246094 1.066406 10.503906 1.066406 10.765625 C 1.066406 11.441406 1.28125 11.992188 1.707031 12.398438 C 2.128906 12.796875 2.683594 13 3.359375 13 L 9.621094 13 C 10.296875 13 10.851562 12.796875 11.269531 12.398438 C 11.695312 11.992188 11.914062 11.441406 11.914062 10.765625 C 11.914062 10.503906 11.902344 10.242188 11.886719 9.996094 Z M 10.746094 11.84375 C 10.46875 12.109375 10.101562 12.238281 9.617188 12.238281 L 3.359375 12.238281 C 2.878906 12.238281 2.511719 12.109375 2.234375 11.84375 C 1.960938 11.585938 1.828125 11.234375 1.828125 10.765625 C 1.828125 10.519531 1.835938 10.28125 1.851562 10.050781 C 1.867188 9.824219 1.898438 9.574219 1.949219 9.308594 C 1.996094 9.046875 2.054688 8.804688 2.125 8.582031 C 2.191406 8.367188 2.285156 8.15625 2.402344 7.957031 C 2.511719 7.761719 2.636719 7.597656 2.777344 7.460938 C 2.910156 7.335938 3.074219 7.234375 3.265625 7.15625 C 3.445312 7.085938 3.648438 7.046875 3.867188 7.042969 C 3.894531 7.054688 3.941406 7.082031 4.019531 7.132812 C 4.175781 7.234375 4.355469 7.351562 4.554688 7.480469 C 4.78125 7.621094 5.070312 7.753906 5.414062 7.863281 C 5.769531 7.980469 6.128906 8.035156 6.488281 8.035156 C 6.847656 8.035156 7.207031 7.980469 7.5625 7.863281 C 7.910156 7.753906 8.199219 7.621094 8.425781 7.480469 C 8.628906 7.347656 8.804688 7.234375 8.960938 7.132812 C 9.035156 7.082031 9.085938 7.054688 9.109375 7.042969 C 9.332031 7.046875 9.53125 7.085938 9.710938 7.15625 C 9.90625 7.234375 10.070312 7.335938 10.199219 7.460938 C 10.339844 7.59375 10.464844 7.761719 10.578125 7.957031 C 10.691406 8.15625 10.785156 8.367188 10.851562 8.582031 C 10.925781 8.804688 10.984375 9.046875 11.03125 9.308594 C 11.078125 9.574219 11.109375 9.824219 11.125 10.050781 C 11.140625 10.28125 11.152344 10.519531 11.152344 10.765625 C 11.152344 11.234375 11.019531 11.585938 10.746094 11.84375 Z M 10.746094 11.84375 "/>
</g>
</svg>
